<?xml version="1.0" standalone="no"?>
<!DOCTYPE svg PUBLIC "-//W3C//DTD SVG 1.1//EN" "http://www.w3.org/Graphics/SVG/1.1/DTD/svg11.dtd" >
<svg xmlns="http://www.w3.org/2000/svg">
<metadata>
Created by FontForge 20120731 at Tue Oct 13 10:56:35 2015
 By Ads
</metadata>
<defs>
<font id="iconfont" horiz-adv-x="1024" >
  <font-face 
    font-family="iconfont"
    font-weight="500"
    font-stretch="normal"
    units-per-em="1024"
    panose-1="2 0 6 3 0 0 0 0 0 0"
    ascent="812"
    descent="-212"
    x-height="792"
    bbox="0 -212 1044.25 812"
    underline-thickness="50"
    underline-position="-100"
    unicode-range="U+0078-E61E"
  />
<missing-glyph horiz-adv-x="374" 
d="M34 0v682h272v-682h-272zM68 34h204v614h-204v-614z" />
    <glyph glyph-name=".notdef" horiz-adv-x="374" 
d="M34 0v682h272v-682h-272zM68 34h204v614h-204v-614z" />
    <glyph glyph-name=".null" horiz-adv-x="0" 
 />
    <glyph glyph-name="nonmarkingreturn" horiz-adv-x="341" 
 />
    <glyph glyph-name="x" unicode="x" horiz-adv-x="1001" 
d="M281 543q-27 -1 -53 -1h-83q-18 0 -36.5 -6t-32.5 -18.5t-23 -32t-9 -45.5v-76h912v41q0 16 -0.5 30t-0.5 18q0 13 -5 29t-17 29.5t-31.5 22.5t-49.5 9h-133v-97h-438v97zM955 310v-52q0 -23 0.5 -52t0.5 -58t-10.5 -47.5t-26 -30t-33 -16t-31.5 -4.5q-14 -1 -29.5 -0.5
t-29.5 0.5h-32l-45 128h-439l-44 -128h-29h-34q-20 0 -45 1q-25 0 -41 9.5t-25.5 23t-13.5 29.5t-4 30v167h911zM163 247q-12 0 -21 -8.5t-9 -21.5t9 -21.5t21 -8.5q13 0 22 8.5t9 21.5t-9 21.5t-22 8.5zM316 123q-8 -26 -14 -48q-5 -19 -10.5 -37t-7.5 -25t-3 -15t1 -14.5
t9.5 -10.5t21.5 -4h37h67h81h80h64h36q23 0 34 12t2 38q-5 13 -9.5 30.5t-9.5 34.5q-5 19 -11 39h-368zM336 498v228q0 11 2.5 23t10 21.5t20.5 15.5t34 6h188q31 0 51.5 -14.5t20.5 -52.5v-227h-327z" />
    <glyph glyph-name="uniE600" unicode="&#xe600;" 
d="M844 589q18 -18 18 -44t-18 -44l-534 -534q-19 -18 -44.5 -18t-44.5 18l-41 41q-18 18 -18 44t18 44l535 534q18 18 44 18t44 -18zM221 630q19 18 44.5 18t44.5 -18l534 -534q18 -18 18 -44t-18 -44l-41 -41q-18 -18 -44 -18t-44 18l-535 534q-18 18 -18 44t18 44z" />
    <glyph glyph-name="uniE601" unicode="&#xe601;" 
d="M512.5 681q-103.5 0 -191.5 -51t-139 -139t-51 -191.5t51 -191.5t139 -139t191 -51q78 0 148.5 30t122 81.5t81.5 122t30 148.5q0 103 -51 191t-139 139t-191.5 51zM759 397l-267 -267q-2 -2 -4 -3l-2 -1q0 -1 -1.5 -3t-2.5 -3q-5 -6 -12 -8.5t-14.5 -2.5t-14.5 2.5
t-13 8.5l-114 114q-5 5 -7.5 10.5t-3.5 11t0 11.5t3.5 11.5t7.5 9.5q7 8 17 10.5t19.5 0t17.5 -10.5l87 -87l250 250q11 11 27 11t27 -11t11 -27t-11 -27z" />
    <glyph glyph-name="uniE602" unicode="&#xe602;" 
d="M753 555h-481q-33 0 -56.5 -23.5t-23.5 -56.5v-350q0 -34 23.5 -57t56.5 -23h481q33 0 56.5 23t23.5 57v350q0 33 -23.5 56.5t-56.5 23.5zM686 475l-174 -142l-172 142h346zM272 125v300l240 -209l241 208v-299h-481z" />
    <glyph glyph-name="uniE603" unicode="&#xe603;" 
d="M924 -32l-164 164q72 100 72 222q0 105 -51.5 193.5t-140 139.5t-192.5 51q-78 0 -149 -30t-122.5 -81.5t-82 -123t-30.5 -149.5q0 -104 51.5 -192.5t140 -140t192.5 -51.5q122 0 222 71l164 -164q9 -9 25 -10.5t26 8.5l45 45q16 16 0 41q-3 4 -6 7zM128 354
q0 65 25.5 124.5t68.5 102.5t102 68t124 25q87 0 160.5 -42.5t116.5 -116.5t43 -161q0 -65 -25.5 -124t-68 -102t-102 -68.5t-124.5 -25.5q-87 0 -160.5 43t-116.5 117t-43 160z" />
    <glyph glyph-name="uniE604" unicode="&#xe604;" 
d="M430 -33q-63 0 -123 20t-108 56t-84 84t-56 107.5t-20 123.5q0 106 52.5 196t142.5 142.5t196 52.5t196.5 -52.5t142.5 -142.5t52 -196q0 -153 -104 -266q-103 -110 -252 -123q-18 -2 -35 -2zM430.5 692q-90.5 0 -167.5 -45t-121.5 -121.5t-44.5 -167.5t44.5 -167.5
t121.5 -121.5t167.5 -45t167.5 45t121.5 121.5t44.5 167.5t-44.5 167.5t-121.5 121.5t-167.5 45zM931 -147q-21 0 -37 14l-210 181q-18 15 -20 38.5t13.5 41.5t39.5 20t42 -14l209 -181q18 -15 20 -39t-14 -42q-5 -6 -12 -10.5t-15 -6.5t-16 -2z" />
    <glyph glyph-name="uniE605" unicode="&#xe605;" 
d="M163 588l61 61l637 -637l-61 -61zM800 649l61 -61l-637 -637l-61 61z" />
    <glyph glyph-name="uniE606" unicode="&#xe606;" horiz-adv-x="1044" 
d="M891 -62q-49 -48 -108.5 -81.5t-125.5 -51t-135 -17.5q-105 0 -200 38.5t-169 111t-113.5 166t-39.5 196.5t39.5 196.5t113.5 165.5q49 48 108 81.5t125 51t136 17.5q52 0 102.5 -10t97 -29t89.5 -47t80 -64q100 -98 135.5 -230t0 -264t-135.5 -230zM836 605
q-21 21 -44 39t-48 32t-52 25t-54.5 18.5t-56.5 11.5t-59 4q-184 0 -314 -130q-63 -63 -96.5 -144t-33.5 -170t33.5 -170.5t96.5 -144.5q42 -41 92 -70.5t106.5 -44.5t115.5 -15q89 0 170 33.5t144 96.5q51 52 83 115.5t42 131.5t0 135.5t-42 131.5t-83 115zM763 252h-203
v-203q0 -6 -2 -11.5t-6 -9.5t-9.5 -6t-11.5 -2h-19q-12 0 -20.5 8.5t-8.5 20.5v203h-203q-12 0 -20.5 8.5t-8.5 20.5v19q0 12 8.5 20.5t20.5 8.5h203v203q0 12 8.5 20.5t20.5 8.5h19q12 0 20.5 -8.5t8.5 -20.5v-203h203q12 0 20.5 -8.5t8.5 -20.5v-19q0 -8 -3.5 -15
t-10.5 -10.5t-15 -3.5z" />
    <glyph glyph-name="uniE607" unicode="&#xe607;" 
d="M868 328q-24 -27 -61 -67.5t-63 -68.5l-25 -27q2 -12 4.5 -32.5t9 -71t10.5 -84.5q2 -18 -6 -30.5t-22 -14.5t-32 5q-70 33 -184 88q-4 -2 -76 -35.5t-111 -51.5q-26 -12 -45 0t-16 40q9 77 25 188q-97 102 -151 163q-15 17 -6 36.5t37 23.5l198 35q66 114 107 184
q7 11 13.5 19.5t10.5 11.5t8.5 4.5t6 1t3.5 -0.5q15 -5 33 -36t44.5 -77t43.5 -76l18 -31q119 -22 195 -36q28 -4 37 -23.5t-6 -36.5v0z" />
    <glyph glyph-name="uniE608" unicode="&#xe608;" 
d="M512 -149q-73 0 -141.5 22.5t-123.5 64t-96.5 96.5t-64 123.5t-22.5 141.5q0 91 35.5 174t95.5 143.5t143 96t174 35.5t174 -35.5t143 -96t95.5 -143.5t35.5 -174q0 -73 -22.5 -141.5t-64 -123.5t-96.5 -96.5t-123.5 -64t-141.5 -22.5zM512 668q-100 0 -185 -49.5
t-134 -134.5t-49 -185t49 -185t134 -134t185 -49t185 49t134 134t49 185q0 75 -29 143.5t-78.5 117.5t-117.5 78.5t-143 29.5zM717 254h-160v-159q0 -13 -6 -23t-16.5 -16t-22.5 -6q-9 0 -17.5 3.5t-14.5 9.5t-9.5 14t-3.5 18v159h-160q-12 0 -22.5 6t-16.5 16.5t-6 22.5
q0 9 4 17.5t10 14.5t14 9.5t17 3.5h160v160q0 18 13 31.5t32 13.5q12 0 22.5 -6t16.5 -16.5t6 -22.5v-160h160q18 0 31.5 -13t13.5 -32q0 -12 -6 -22.5t-16.5 -16.5t-22.5 -6z" />
    <glyph glyph-name="uniE609" unicode="&#xe609;" 
d="M512 748q-73 0 -141.5 -22.5t-123.5 -64t-96.5 -96.5t-64 -123.5t-22.5 -141.5q0 -91 35.5 -174t95.5 -143t143 -95.5t174 -35.5t174 35.5t143 95.5t95.5 143t35.5 174t-35.5 174t-95.5 143t-143 95.5t-174 35.5zM717 255h-160v-160q0 -12 -6 -22t-16.5 -16t-22.5 -6
q-4 0 -7.5 0.5t-6.5 1.5t-6.5 2.5t-6 3.5t-5 4.5t-4.5 5.5t-3.5 6t-3 6.5t-2 7t-0.5 6.5v160h-160q-18 0 -31.5 13.5t-13.5 31.5q0 9 4 17.5t10 14.5t14 9.5t17 3.5h160v160q0 18 13 31.5t32 13.5q12 0 22.5 -6t16.5 -16.5t6 -22.5v-160h160q18 0 31.5 -13t13.5 -32
q0 -9 -4 -17.5t-10 -14.5t-14 -9.5t-17 -3.5z" />
    <glyph glyph-name="uniE60A" unicode="&#xe60a;" 
d="M511 111q-6 0 -11.5 3t-8.5 8.5t-3 11.5v334q0 6 3 11.5t8.5 8.5t11.5 3q10 0 16.5 -7t6.5 -16v-334q0 -10 -6.5 -16.5t-16.5 -6.5zM678 278h-334q-9 0 -16 6.5t-7 16t7 16.5t16 7h334q10 0 16.5 -7t6.5 -16q0 -6 -3 -11.5t-8.5 -8.5t-11.5 -3zM511 -147q-73 0 -141 22.5
t-123.5 64t-97 96.5t-64 123.5t-22.5 141.5q0 91 35.5 174t95.5 143t143 95.5t174 35.5t174 -35.5t143 -95.5t96 -143t36 -174t-36 -174t-96 -143t-143 -95.5t-174 -35.5zM511 703q-109 0 -201.5 -54t-146.5 -146.5t-54 -201.5t54 -201.5t146.5 -146.5t201.5 -54t202 54
t146.5 146.5t53.5 201.5q0 82 -31.5 156t-85.5 128t-128.5 86t-156.5 32z" />
    <glyph glyph-name="uniE60B" unicode="&#xe60b;" 
d="M512 683q-104 0 -192.5 -51t-139.5 -139.5t-51 -192.5t51 -192.5t139.5 -139.5t192.5 -51t192.5 51t139.5 139.5t51 192.5q0 78 -30 149t-81.5 122.5t-122.5 81.5t-149 30zM512 -19q-132 0 -225.5 93.5t-93.5 225.5t93.5 225.5t225.5 93.5t225.5 -93.5t93.5 -225.5
t-93 -225q-94 -94 -226 -94zM647 435q-7 6 -15 8t-16.5 0t-14.5 -8l-89 -90l-89 90q-10 9 -23 9t-22.5 -9.5t-9.5 -22.5t9 -23l90 -89l-90 -89q-9 -10 -9 -23t9.5 -22.5t22.5 -9.5t23 9l89 90l89 -90q10 -9 23 -9t22.5 9.5t9.5 22.5t-9 23l-90 89l90 89q4 5 6.5 11t2.5 12
t-2.5 12t-6.5 11z" />
    <glyph glyph-name="uniE60C" unicode="&#xe60c;" 
d="M1024 300q0 104 -40.5 199t-109 163.5t-163.5 109t-199 40.5q-70 0 -136 -18.5t-122.5 -51.5t-103.5 -80t-80 -103.5t-51.5 -122.5t-18.5 -136q0 -104 40.5 -199t109 -163.5t163.5 -109t199 -40.5q87 0 168 28l295 -28l-96 155q69 71 107 163t38 194zM262.5 220
q-21.5 0 -40 10.5t-29 29t-10.5 40.5q0 33 23.5 56.5t56.5 23.5t56.5 -23.5t23.5 -56.5q0 -22 -11 -40.5t-29.5 -29t-40 -10.5zM512 220q-33 0 -56.5 23.5t-23.5 56.5t23.5 56.5t56.5 23.5t56.5 -23.5t23.5 -56.5t-23.5 -56.5t-56.5 -23.5zM761 220q-33 0 -56.5 23.5
t-23.5 56.5t23.5 56.5t56.5 23.5t56.5 -23.5t23.5 -56.5q0 -22 -10.5 -40.5t-29 -29t-40.5 -10.5z" />
    <glyph glyph-name="uniE60D" unicode="&#xe60d;" 
d="M956 400q-3 8 -8 15.5t-13 13.5t-18.5 11.5t-23.5 9.5h-2l-188 47q-33 46 -122 169l-1 1q-7 9 -15.5 16.5t-17 12.5t-18 7.5t-18.5 2.5q-39 0 -68 -41l-105 -155q-63 -17 -140 -38l-69 -19q-48 -15 -60 -46q-12 -32 18 -77q0 -1 1 -2q37 -43 66 -76.5t57 -65.5
q-1 -32 -2 -70.5t-2 -63.5t-2 -71q-5 -48 16 -70q16 -17 43 -17q21 0 53 11l181 67q96 -33 206 -70q3 -1 6 -1.5t5.5 -1t5.5 -1t5.5 -1t5 -0.5t5 -0.5t5.5 -0.5q26 0 48 17.5t24 64.5v3q-1 17 -2.5 37.5t-2.5 33.5t-2.5 39.5t-2 33t-2.5 38.5v1l134 163q31 40 20 73z" />
    <glyph glyph-name="uniE60E" unicode="&#xe60e;" 
d="M514 -145q-91 0 -174 35q-80 34 -141.5 95.5t-95.5 141.5q-35 83 -35 173.5t35 173.5q17 40 41 75.5t54 66.5q62 61 142 95q83 35 173.5 35t173.5 -35q27 -11 51.5 -25.5t47 -32t43.5 -37.5q31 -31 55 -66.5t40 -75.5q36 -83 36 -173.5t-36 -173.5q-33 -80 -95 -141.5
t-142 -95.5q-16 -7 -33 -12.5t-34.5 -10t-35 -7.5t-35 -4t-35.5 -1zM514 689q-78 0 -149 -29.5t-126 -84.5t-84.5 -126t-29.5 -148.5t29.5 -148.5t84.5 -126t126 -84.5t149 -29.5t148.5 29.5t125.5 84.5t84.5 126t29.5 149q0 51 -13 100.5t-38.5 93.5t-62.5 80
q-55 55 -125.5 84.5t-148.5 29.5zM514 143q-6 0 -11.5 2t-9 6t-6 9t-2.5 11v259q0 12 8.5 20t20.5 8t20 -8t8 -20v-259q0 -4 -1.5 -8.5t-4 -8t-6 -6.5t-8 -4t-8.5 -1zM648 272h-269q-12 0 -20.5 8.5t-8.5 20.5q0 4 1.5 8.5t4.5 8t6.5 6t7.5 4t9 1.5h269q6 0 11.5 -2t9 -6
t6 -9.5t2.5 -11t-2.5 -11t-6 -9.5t-9 -6t-11.5 -2z" />
    <glyph glyph-name="uniE60F" unicode="&#xe60f;" 
d="M945 -54l-166 166q-19 20 -48 12l-28 29q81 99 81 228q0 98 -48 180.5t-131 131t-181 48.5q-73 0 -140 -28.5t-115 -77t-76.5 -115t-28.5 -139.5q0 -98 48 -181t131 -131t181 -48q140 0 243 95l28 -28q-8 -28 12 -48l166 -166q5 -5 11 -8.5t12 -5t13 -1.5t13 1.5t12 5
t11 8.5q3 3 6 7t5 8l2 8q2 4 2 9v8q0 5 -2 9l-2 8q-2 4 -5 8t-6 7zM424 123q-107 0 -182.5 75.5t-75.5 182t75.5 182.5t182.5 76t182.5 -76t75.5 -182q0 -70 -34.5 -129.5t-94 -94t-129.5 -34.5z" />
    <glyph glyph-name="uniE610" unicode="&#xe610;" 
d="M509 -8q-417 -270 -270 190q-397 296 106 304q172 452 336 -3q503 -16 101 -305q139 -462 -273 -186z" />
    <glyph glyph-name="uniE611" unicode="&#xe611;" 
d="M177 150q-30 -26 -34 -66t22 -71q17 -20 41.5 -28.5t49.5 -4.5t46 21q30 26 34 66t-22 71q-13 15 -30.5 24t-35.5 10.5t-37 -4.5t-34 -18zM270 389q14 38 -3 74.5t-55 49.5q-19 7 -38 6t-36 -8.5t-30 -22t-20 -32.5q-14 -38 3 -74.5t54.5 -50t74 3t50.5 54.5zM544 664.5
q-7 39.5 -40 63t-72.5 16.5t-62.5 -40t-16 -72.5t40 -62.5t72.5 -16t62.5 39.5t16 72zM553.5 50q-39.5 -7 -62.5 -39.5t-16 -72t39.5 -63t72 -16.5t62.5 40t16.5 72.5t-39.5 62.5t-72.5 16zM873.5 271.5q-37.5 13.5 -74 -3t-50.5 -54.5t3 -74.5t54.5 -50t74 3.5t50.5 54.5
t-3 74t-54.5 50zM841.5 453q30.5 26 34 66t-22 70.5t-65.5 34t-71 -22t-34.5 -65.5t22.5 -71t66 -34.5t70.5 22.5zM511 631q-90 0 -166 -44.5t-120.5 -120.5t-44.5 -166t44.5 -166.5t120.5 -120.5t166 -44t166 44t120.5 120.5t44.5 166.5q0 67 -26 128.5t-70.5 105.5
t-106 70.5t-128.5 26.5zM511 88q-88 0 -150 62t-62 149.5t62 149.5t150 62t150 -62t62 -149.5t-62 -149.5t-150 -62zM514 297zM367 296.5q0 60.5 43 104t104 43.5t104 -43.5t43 -103.5q0 -40 -19.5 -74t-53.5 -53.5t-74 -19.5q-61 0 -104 43t-43 103.5z" />
    <glyph glyph-name="uniE612" unicode="&#xe612;" 
d="M512 300zM41 300h942q0 -96 -37.5 -183t-100.5 -150t-150 -100.5t-183 -37.5q-177 0 -310 116q-128 112 -155 279q-6 38 -6 76zM833 478l-73 73l-353 -353l-140 141l-76 -77l213 -213h1z" />
    <glyph glyph-name="uniE613" unicode="&#xe613;" 
d="M512 -87q85 0 163 32l3 1v1q11 4 23 4q13 0 24 -5l168 -62l-44 177q0 15 8 29q3 5 5 7q66 99 66 217q0 82 -33 156.5t-88.5 128t-132.5 85.5t-162 32q-113 0 -209 -53.5t-151.5 -146t-55.5 -201.5q0 -37 6.5 -72.5t19.5 -68t31 -62.5t41 -56t50 -48.5t58 -39.5
t64.5 -29.5t70.5 -19t75 -6.5zM704 364q27 0 45.5 -18.5t18.5 -45.5t-18.5 -45.5t-45.5 -18.5t-45.5 18.5t-18.5 45.5t18.5 45.5t45.5 18.5zM512 364q27 0 45.5 -18.5t18.5 -45.5t-18.5 -45.5t-45.5 -18.5t-45.5 18.5t-18.5 45.5t18.5 45.5t45.5 18.5zM320 364
q27 0 45.5 -18.5t18.5 -45.5t-18.5 -45.5t-45.5 -18.5t-45.5 18.5t-18.5 45.5t18.5 45.5t45.5 18.5z" />
    <glyph glyph-name="uniE614" unicode="&#xe614;" 
d="M859 300q0 94 -46.5 174t-126.5 126.5t-174 46.5q-70 0 -134 -27.5t-110.5 -74t-74 -111t-27.5 -134.5q0 -94 46.5 -174t126 -126.5t173.5 -46.5t174 46.5t126.5 126.5t46.5 174zM897 300q0 -104 -51.5 -193t-140 -140.5t-193.5 -51.5v19v-19q-78 0 -149 30.5t-122.5 82
t-82 123t-30.5 149.5t30.5 149.5t82 123t122.5 82t149 30.5q63 0 121.5 -19.5t106 -55.5t83 -83t55 -105.5t19.5 -121.5zM698 436q3 -4 4.5 -9t0 -10t-4.5 -8l-258 -258l-113 113q-4 3 -5 8t0 10t5 9q5 5 13 5t14 -5l86 -86l231 231q5 5 13 5t14 -5z" />
    <glyph glyph-name="uniE615" unicode="&#xe615;" 
d="M827 616q-85 85 -200.5 115.5t-230.5 0t-200.5 -116t-116 -200.5t0 -230.5t116 -201t200.5 -116t230.5 0t201 116t116 201t0 230.5t-116.5 201zM229 17q-77 77 -104 180t0 206t104 179q38 39 85 65.5t96 39t101.5 12.5t101.5 -12.5t96 -39t85 -65.5q77 -76 104 -179
t0 -206t-104 -180q-117 -117 -282.5 -117t-282.5 117zM653 203l-96 97l96 96q6 8 4 20t-9.5 19.5t-19.5 9.5t-19 -4l-97 -97l-97 98q-4 4 -12 4.5t-15 -2.5t-12 -8q-7 -7 -9.5 -19t4.5 -20l97 -97l-98 -98q-6 -7 -4 -19t9.5 -19.5t19.5 -9.5t20 4l97 97l97 -96q4 -5 11.5 -5
t15 3t12 7.5t7.5 12t3 15t-5 11.5zM653 203z" />
    <glyph glyph-name="uniE616" unicode="&#xe616;" 
d="M215 577q-9 9 -12 21t0 24.5t12 21.5q14 14 33.5 14t32.5 -14l237 -236l236 236q9 9 21 12t24 0t21 -12q7 -7 10.5 -16t3.5 -17.5t-3.5 -17.5t-10.5 -16l-236 -236l236 -236q14 -14 14 -33.5t-14 -33t-33.5 -13.5t-32.5 14l-236 236l-237 -236q-13 -14 -32.5 -14
t-33.5 13.5t-14 33t14 33.5l236 236z" />
    <glyph glyph-name="uniE617" unicode="&#xe617;" 
d="M711 219l-2 4l-2 1l-4 4l-1 1v0q-9 7 -14 23.5t-5 36.5q0 10 1 20v1v1l2 8q1 4 1.5 9t0.5 10v9v4q0 69 -48.5 117.5t-117.5 48.5h-45q-69 0 -117.5 -48.5t-48.5 -117.5v-4q0 -69 48.5 -117.5t117.5 -48.5h45h6h6h155l6 1q18 6 18 26l-1 9zM403 327q-10 0 -16.5 7
t-6.5 16.5t6.5 16t16.5 6.5q5 0 9 -1.5t7 -5t5 -7.5t2 -9q0 -17 -17 -22q-3 -1 -6 -1zM501 327q-10 0 -16.5 7t-6.5 16.5t6.5 16t16.5 6.5q6 0 11.5 -3t8.5 -8.5t3 -11.5t-3 -11.5t-8.5 -8.5t-11.5 -3zM599 327q-6 0 -11.5 3t-8.5 8.5t-3 11.5q0 10 7 16.5t16.5 6.5t16 -6.5
t6.5 -16t-6.5 -16.5t-16.5 -7z" />
    <glyph glyph-name="uniE618" unicode="&#xe618;" 
d="M389 75l-102 100l-64 -171zM715 394l-105 109l-304 -301l109 -113zM802 477q8 11 5.5 23.5t-9.5 21.5l-7 10q-2 2 -5.5 6.5t-16.5 17t-27 22.5q-7 5 -13.5 7.5t-12 2.5t-10.5 -0.5t-8.5 -2t-6.5 -3.5t-4 -3l-2 -1l-54 -54l110 -110q47 47 61 63zM170 -38h611v-54h-611v54
z" />
    <glyph glyph-name="uniE619" unicode="&#xe619;" 
d="M257 156zM528 633q-90 0 -167 -45t-121.5 -121.5t-44.5 -167t44.5 -167.5t121.5 -121.5t167.5 -44.5t167 44.5t121 121.5t44.5 167q0 68 -26 130t-71 106.5t-106.5 71t-129.5 26.5zM528 7q-120 0 -205.5 86t-85.5 206.5t85.5 206t205.5 85.5q59 0 113 -23t93.5 -62
t62.5 -93t23 -114q0 -79 -39 -146t-106.5 -106.5t-146.5 -39.5zM646 417q-4 4 -9.5 5.5t-10.5 0t-9 -5.5l-89 -88l-88 88q-6 6 -14.5 6t-15.5 -6q-4 -4 -5 -9.5t0 -10.5t5 -9l89 -89l-89 -88q-3 -3 -4.5 -7t-1.5 -8t1.5 -7.5t4.5 -6.5t7 -5t8 -2t8 2t7 5l88 88l89 -88
q4 -4 9 -5.5t10.5 0t9.5 5.5q6 6 6 14.5t-6 14.5l-88 88l88 89q3 3 4.5 7t1.5 7.5t-1.5 7.5t-4.5 7z" />
    <glyph glyph-name="uniE61A" unicode="&#xe61a;" 
d="M326 45q12 -8 26 -8q12 0 22 6l143 77l143 -77q10 -6 21 -6q15 0 27 8q23 17 18 44l-28 166l120 120q20 19 11 44.5t-36 29.5l-164 25l-71 147q-6 12 -17 19t-24 7t-24.5 -7t-16.5 -19l-72 -147l-163 -25q-28 -4 -36.5 -29.5t10.5 -44.5l120 -120l-28 -166v-9q0 -4 1 -8
t2.5 -7.5t3.5 -7t5 -6.5t7 -6z" />
    <glyph glyph-name="uniE61B" unicode="&#xe61b;" 
d="M939 60q-19 14 -67 24q-11 3 -17.5 4.5t-17 4.5t-18 6.5t-16 8.5t-16 12t-14.5 16l-1 1q0 1 -1 4t-1.5 6t0.5 9t3.5 12t8 15t12.5 18q18 22 27.5 54t9 62.5t-4.5 61.5q-5 27 -22.5 49t-43 34t-53.5 12q-43 0 -77.5 -27t-41.5 -68q-4 -23 -4.5 -46t2.5 -46.5t11.5 -46
t22.5 -39.5q23 -29 24 -50q15 -5 27.5 -11t24.5 -14q25 -18 40.5 -45.5t19.5 -52t6 -47.5t-1 -32h214l1 3v8v10q0 7 -0.5 14.5t-2 15.5t-4 16.5t-6.5 16t-10 15t-14 12.5zM668 86q-20 14 -55 24q-9 2 -31 6.5t-33.5 8.5t-29 11t-31.5 18t-25 26q-1 1 -1.5 2t-1.5 4.5
t-1.5 7.5t0.5 11t4 15t9.5 18.5t16.5 22.5q22 27 33.5 66.5t11 77t-5.5 75.5q-8 52 -51 85t-96 33t-96 -33t-52 -85q-5 -38 -5.5 -75.5t11 -77t34.5 -66.5q20 -26 26.5 -46t3.5 -27l-4 -8q-12 -15 -25.5 -26t-31 -18t-28.5 -10.5t-33.5 -8.5t-30.5 -7q-36 -9 -56 -24
q-17 -12 -27.5 -30t-14 -36t-4.5 -34.5t0 -26.5l1 -10h7h268h57h58h268h5q9 60 -16 105q-11 20 -28 32zM668 86z" />
    <glyph glyph-name="uniE61C" unicode="&#xe61c;" 
d="M509 -157q-89 0 -172 36.5t-143.5 97t-96 143.5t-33.5 171q3 127 60.5 228.5t160 159.5t230.5 57q126 0 227.5 -59t158.5 -160t56 -224q-1 -195 -127 -318t-321 -132zM510 683q-76 5 -149.5 -26.5t-126.5 -86t-85.5 -128.5t-33 -151t32.5 -150t86.5 -127t126.5 -86.5
t149 -31.5q103 0 195 54t147 146t55 197q0 77 -33 150.5t-86.5 128t-127 85.5t-150.5 26zM457 106q-10 0 -41.5 20t-60 43t-32.5 32q-1 4 -1.5 7t-0.5 6.5t1.5 6.5t4.5 6q14 12 30 1q39 -25 61 -43q19 -16 34.5 -14t30.5 23q40 52 163 204q16 20 40 44.5t41 9.5
q7 -6 6.5 -14t-3.5 -13t-10 -14q-21 -26 -151 -189q-8 -9 -22 -27t-25.5 -32.5t-22.5 -27.5q-4 -5 -7 -8.5t-7.5 -7.5t-8.5 -6.5t-9 -4.5t-10 -2z" />
    <glyph glyph-name="uniE61D" unicode="&#xe61d;" 
d="M527 608h85q52 0 87.5 -0.5t82.5 0t87 0.5q46 0 67.5 -20.5t20.5 -66.5v-209v-210q-1 -39 -12.5 -62.5t-35.5 -34t-64 -10.5h-328h-327q-39 0 -67 15t-43 42.5t-16 66.5v376q0 61 26 86.5t89 26.5h348zM518 49q30 0 102 0.5t124.5 0t101.5 -0.5q32 -1 45 11t12 44
q-1 59 -1 157v157q0 4 1 13.5t1 15t-3.5 12t-11.5 9.5q-7 1 -11 2t-10 -2.5t-8.5 -6t-8.5 -7.5t-9 -8q-12 -10 -123 -97t-168 -134q-23 -20 -41 -20t-41 20q-54 45 -155.5 125.5t-139.5 111.5q-1 1 -6.5 5.5t-6.5 5t-6.5 4.5t-7 3.5t-7 1.5t-8.5 -1q-7 -2 -10.5 -7.5
t-3.5 -10t0.5 -13t0.5 -11.5v-101v-100q0 -56 -1 -99q0 -28 8 -46t25.5 -26t45.5 -8h321zM140 549q7 -7 14.5 -14t11 -10t6.5 -6q17 -13 45.5 -35.5t47 -37.5t44 -35t46.5 -36q49 -38 68.5 -53t50.5 -27.5t41 -12.5t40.5 13t49.5 28.5t67 53.5q16 12 211 172h-743z" />
    <glyph glyph-name="uniE61E" unicode="&#xe61e;" 
d="M795 414q0 108 -53 199.5t-144.5 144.5t-199.5 53q-81 0 -154.5 -31t-127 -84.5t-84.5 -127t-31 -154.5q0 -108 53 -199t144.5 -144.5t199.5 -53.5q80 0 154 31.5t127 84.5t84.5 127t31.5 154zM398 54q-98 0 -181 48.5t-131 131.5t-48 180.5t48 180.5t131 131t181 48
q58 0 113 -18t99.5 -51.5t77.5 -77.5t51.5 -99t18.5 -114q0 -97 -48.5 -180t-131 -131.5t-180.5 -48.5zM1008 -119l-246 246q-16 16 -38.5 16t-38.5 -16t-16 -38.5t16 -38.5l246 -246q16 -16 38.5 -16t38.5 16q15 16 15 38.5t-15 38.5z" />
  </font>
</defs>
</svg>
